<svg width="24" height="24" viewBox="0 0 24 24" fill="none" xmlns="http://www.w3.org/2000/svg">
<rect width="24" height="24" rx="12" fill="#0093DD"/>
<path d="M15.6013 8.4C15.2353 8.4 14.8993 8.19 14.7313 7.866L14.2993 6.996C14.0233 6.45 13.3033 6 12.6913 6H11.3173C10.6993 6 9.97927 6.45 9.70327 6.996L9.27127 7.866C9.10327 8.19 8.76727 8.4 8.40127 8.4C7.09927 8.4 6.06727 9.498 6.15127 10.794L6.46327 15.75C6.53527 16.986 7.20127 18 8.85727 18H15.1453C16.8013 18 17.4613 16.986 17.5393 15.75L17.8513 10.794C17.9353 9.498 16.9033 8.4 15.6013 8.4ZM11.1013 9.15H12.9013C13.1473 9.15 13.3513 9.354 13.3513 9.6C13.3513 9.846 13.1473 10.05 12.9013 10.05H11.1013C10.8553 10.05 10.6513 9.846 10.6513 9.6C10.6513 9.354 10.8553 9.15 11.1013 9.15ZM12.0013 15.672C10.8853 15.672 9.97327 14.766 9.97327 13.644C9.97327 12.522 10.8793 11.616 12.0013 11.616C13.1233 11.616 14.0293 12.522 14.0293 13.644C14.0293 14.766 13.1173 15.672 12.0013 15.672Z" fill="#FDFDFD"/>
</svg>
